# xmcd CD database file
#
# Track frame offsets:
#	180
#	14964
#	28573
#	47535
#	62607
#	75686
#	87910
#	106240
#	115436
#	136336
#	147609
#	168956
#	184383
#
# Disc length: 2651 seconds
#
# Revision: 0
# Processed by: cddbd v1.5.2PL0 Copyright (c) Steve Scherf et al.
# Submitted via: Feurio! 1.67 - http://www.feurio.com
#
DISCID=b50a590d
DTITLE=Kuhlmann, Hüdepohl, Hothan - The Boogie's Playin' Here
DYEAR=1995
DGENRE=Blues Rock
TTITLE0=Going Back To Louisiana
TTITLE1=Jambalaya (On The Bayou)
TTITLE2=Georgia On My Mind
TTITLE3=Summertime
TTITLE4=My Girl Josefin
TTITLE5=People Get Ready
TTITLE6=I Can See Clearly Now
TTITLE7=Roll Over Beethoven
TTITLE8=Route 66
TTITLE9=Stupidity
TTITLE10=Hucklebuck
TTITLE11=Your Cheatin' Heart
TTITLE12=The Boogie's Playin' Here
EXTD=
EXTT0=
EXTT1=
EXTT2=
EXTT3=
EXTT4=
EXTT5=
EXTT6=
EXTT7=
EXTT8=
EXTT9=
EXTT10=
EXTT11=
EXTT12=
PLAYORDER=
